HIERARCHY
ROOT lpalm
{
OFFSET	0.000000	0.000000	0.000000
CHANNELS	6	Xposition	Yposition	Zposition	Zrotation	Xrotation	Yrotation
JOINT lthumbA
{
OFFSET	-6.570000	-2.200000	3.500000
CHANNELS	3	Zrotation	Xrotation	Yrotation
JOINT lthumbB
{
OFFSET	0.000000	0.000000	7.000000
CHANNELS	3	Zrotation	Xrotation	Yrotation
JOINT lthumbC
{
OFFSET	0.000000	0.000000	3.800000
CHANNELS	3	Zrotation	Xrotation	Yrotation
End Site
{
OFFSET	0.000000	0.000000	3.000000
}
}
}
}
JOINT lindexA
{
OFFSET	-2.730000	0.000000	10.400000
CHANNELS	3	Zrotation	Xrotation	Yrotation
JOINT lindexB
{
OFFSET	0.000000	0.000000	4.600000
CHANNELS	3	Zrotation	Xrotation	Yrotation
JOINT lindexC
{
OFFSET	0.000000	0.000000	3.000000
CHANNELS	3	Zrotation	Xrotation	Yrotation
End Site
{
OFFSET	0.000000	0.000000	2.600000
}
}
}
}
JOINT lmiddleA
{
OFFSET	-0.610000	0.000000	10.000000
CHANNELS	3	Zrotation	Xrotation	Yrotation
JOINT lmiddleB
{
OFFSET	0.000000	0.000000	5.100000
CHANNELS	3	Zrotation	Xrotation	Yrotation
JOINT lmiddleC
{
OFFSET	0.000000	0.000000	3.100000
CHANNELS	3	Zrotation	Xrotation	Yrotation
End Site
{
OFFSET	0.000000	0.000000	2.800000
}
}
}
}
JOINT lringA
{
OFFSET	1.880000	0.000000	9.700000
CHANNELS	3	Zrotation	Xrotation	Yrotation
JOINT lringB
{
OFFSET	0.000000	0.000000	4.800000
CHANNELS	3	Zrotation	Xrotation	Yrotation
JOINT lringC
{
OFFSET	0.000000	0.000000	3.000000
CHANNELS	3	Zrotation	Xrotation	Yrotation
End Site
{
OFFSET	0.000000	0.000000	2.700000
}
}
}
}
JOINT llittleA
{
OFFSET	3.540000	0.000000	8.600000
CHANNELS	3	Zrotation	Xrotation	Yrotation
JOINT llittleB
{
OFFSET	0.000000	0.000000	3.800000
CHANNELS	3	Zrotation	Xrotation	Yrotation
JOINT llittleC
{
OFFSET	0.000000	0.000000	2.300000
CHANNELS	3	Zrotation	Xrotation	Yrotation
End Site
{
OFFSET	0.000000	0.000000	2.400000
}
}
}
}
}
MOTION
Frames: 51
Frame Time: 0.023541
0.00	0.00	0.00	0.59	7.62	-4.43	5.28	1.04	-49.49	-14.01	-5.42	20.74	0.00	0.00	2.64	0.00	6.09	-10.21	0.00	0.62	0.00	0.00	0.00	0.00	0.00	-4.37	-0.27	0.00	1.67	0.00	0.00	0.00	0.00	0.00	-6.88	1.80	0.00	1.04	0.00	0.00	0.51	0.00	0.00	-1.59	7.33	0.00	2.13	0.00	0.00	3.16	0.00
0 0 0 -0.37 28.95 0.66 -3.09 -2.95 -22.98 -15 0 0 0 0 11.99 0 11.01 -11.96 0 15.93 0 0 0.36 0 0 15.15 0.33 0 18.78 0 0 2.71 0 0 13 6.62 0 25.49 0 0 0.98 0 0 11.95 5.39 0 22.47 0 0 0 0
0 0 0 0.03 -0.92 2.1 -19.88 -9.89 -32.23 -14.7 -3.03 11.39 0 0 3.13 0 -23.11 -3.25 0 3.35 0 0 5.51 0 0 -7.55 0.74 0 5.35 0 0 3.65 0 0 -6.57 2.15 0 8.44 0 0 2.25 0 0 12.2 1.67 0 14.69 0 0 0 0
0 0 0 -0.18 -11.2 -0.9 22.1 16.1 -18.37 -13.95 -5.56 21.32 0 0 20.18 0 52.26 -8.91 0 42.46 0 0 9.28 0 0 28.32 -6.84 0 13.3 0 0 3.63 0 0 6.71 0.4 0 8.51 0 0 6.33 0 0 13.46 4.1 0 19.15 0 0 3.75 0
0 0 0 -0.35 -8.83 -2.25 -24.65 -7.76 -43.61 -14.86 -2.07 7.76 0 0 10.97 0 12.02 7.82 0 6.93 0 0 4.44 0 0 69.83 -1.83 0 66 0 0 13.07 0 0 84.7 -1.75 0 62.64 0 0 8.23 0 0 86.7 -1.75 0 60.22 0 0 13.92 0
0 0 0 0.54 9.61 -3.22 -9.82 -3.91 -44.97 -15 0 0 0 0 9.87 0 28.65 -9.29 0 73.76 0 0 21.04 0 0 26.23 3.73 0 40.39 0 0 7.81 0 0 31.86 5.26 0 45.13 0 0 3.72 0 0 23.79 1.37 0 23.91 0 0 0 0
0 0 0 0.55 7.56 -4.11 69.58 30.85 -51.16 -11.07 -10.19 42.13 0 0 23.15 0 -29 -23.76 0 6.39 0 0 11.1 0 0 -20.01 4.62 0 4.52 0 0 9.56 0 0 52.21 3.2 0 81.5 0 0 2.15 0 0 77.35 1.9 0 81.49 0 0 0 0
0 0 0 0.93 16.37 -3.17 8.52 2.95 -37.22 -15 0 0 0 0 15.21 0 22.43 -13.55 0 25.67 0 0 4.56 0 0 21.62 -0.87 0 18.26 0 0 2.38 0 0 24.88 2.29 0 27.15 0 0 1.68 0 0 23.75 5.29 0 26.27 0 0 0 0
0 0 0 0.34 5.78 -3.33 3.64 2.96 -16.74 -14.37 -4.34 16.47 0 0 9.66 0 -2.21 -7.69 0 6.32 0 0 4.33 0 0 1.78 2.53 0 3.97 0 0 4.14 0 0 10.71 -0.33 0 18.9 0 0 1.6 0 0 19.11 6.47 0 21.31 0 0 0.17 0
0 0 0 0.38 23.72 -0.86 -2.41 -1.28 -74.52 -15 0 0 0 0 3.89 0 73.32 0.33 0 68.83 0 0 13.47 0 180 85.56 -179.67 0 65.22 0 0 5.28 0 0 87.83 0.33 0 66.04 0 0 1.84 0 0 1.98 -1.06 0 18.98 0 0 6.1 0
0 0 0 0.22 4.24 -3.03 11.93 7.87 -23.9 -14.68 -3.12 11.76 0 0 11.84 0 4.34 -4.94 0 9.86 0 0 1.94 0 0 29.02 -1.87 0 25.52 0 0 5.66 0 0 28.37 -0.79 0 27.46 0 0 4.15 0 0 37.08 3.77 0 29.39 0 0 0.84 0
0 0 0 0.3 2.53 -6.89 69.28 34.45 -48.85 -10.24 -11.02 46.6 0 0 19.47 0 -14.62 -28.98 0 3.84 0 0 8.36 0 0 -15.26 4.6 0 9.38 0 0 7.7 0 0 19.19 14.15 0 49.49 0 0 4.97 0 0 66.52 4.02 0 64.06 0 0 0 0
0 0 0 0.55 7.42 -4.23 -13.71 11.32 -87.01 -15 0 0 0 0 -0.69 0 83.99 1.24 0 55.9 0 0 8.78 0 180 81.71 -178.76 0 62.73 0 0 6.7 0 0 85.11 1.24 0 64.89 0 0 2.4 0 0 4.97 -4.32 0 19.9 0 0 8.08 0
0 0 0 0.3 4.73 -3.58 66.88 31.41 -47.67 -12.01 -9.05 36.47 0 0 24.42 0 -29.36 -24.04 0 5.19 0 0 9.56 0 0 -13.58 4.84 0 13.52 0 0 6.92 0 0 49.85 2.79 0 68.71 0 0 0.49 0 0 67.92 1.69 0 71.03 0 0 10.96 0
0 0 0 -0.36 20.9 0.95 0.9 -0.09 -21.01 -14.91 -1.63 6.1 0 0 10.39 0 6.05 -12 0 15.6 0 0 0.99 0 0 10.42 1.48 0 13.44 0 0 2.54 0 0 7.71 6.31 0 18.74 0 0 1.68 0 0 13.47 5.78 0 19.81 0 0 0 0
0 0 0 0.15 -3.85 2.29 -0.59 -0.23 -20.6 -14.64 -3.31 12.48 0 0 10.01 0 -20.3 -0.37 0 6.53 0 0 7.61 0 0 15.72 -1.28 0 33.19 0 0 5.56 0 0 26.28 1.43 0 33.39 0 0 2.65 0 0 35.63 -1.75 0 28.83 0 0 1.96 0
0 0 0 0.78 25.7 -1.62 6.71 3.4 -24.51 -14.99 -0.42 1.55 0 0 13.14 0 -4.34 -16.4 0 21.14 0 0 4.66 0 0 8.99 7.5 0 32.72 0 0 5.89 0 0 24.34 10.29 0 48.18 0 0 4.97 0 0 25.65 7.58 0 46.52 0 0 11.85 0
0 0 0 0.49 4.85 -5.84 77.99 29.25 -60.5 -8.62 -12.32 54.6 0 0 28.33 0 -19.78 -30.79 0 3.8 0 0 7.9 0 0 -21.74 4.08 0 4.9 0 0 7.18 0 0 -10.23 10.69 0 11.33 0 0 6.64 0 0 64.62 3.2 0 73.6 0 0 13.76 0
0 0 0 0.5 7.24 -3.98 11.33 9.59 -14.3 -13.88 -5.76 22.1 0 0 12.52 0 -6.08 -10.6 0 7.78 0 0 5.35 0 0 -0.02 3.51 0 5.82 0 0 4.72 0 0 29.09 2.94 0 35.4 0 0 2.07 0 0 30.3 4.7 0 27.81 0 0 0 0
0 0 0 0.02 -3.35 0.32 -19.95 -6.98 -42.5 -15 -0.06 0.22 0 0 10.07 0 -2.27 -2.67 0 13.51 0 0 5.17 0 0 9.31 2.11 0 7.65 0 0 3.75 0 0 5.2 0.79 0 7.88 0 0 4.55 0 0 17.49 2.23 0 13.63 0 0 0.73 0
0 0 0 -0.59 -9.82 -3.42 -24.93 -5.26 -48.86 -15 0 0 0 0 14.53 0 1.21 2.5 0 9.43 0 0 7.21 0 0 69.14 -2.3 0 77.8 0 0 19.82 0 0 85.45 -0.8 0 69.6 0 0 14.8 0 180 88.21 179.2 0 73.59 0 0 18.37 0
0 0 0 0.45 13.49 -1.86 -12.24 -1 -68.7 -15 0 0 0 0 6.4 0 -21.5 -7.99 0 13.48 0 0 5.35 0 0 -3.46 0.2 0 10.37 0 0 2.21 0 0 -0.75 4.01 0 12.11 0 0 1.52 0 0 12.25 2.22 0 15.59 0 0 0 0
0 0 0 0.47 10.24 -2.59 -14.98 -1.28 -66.21 -15 0 0 0 0 9.69 0 70.8 0.92 0 58.54 0 0 12.96 0 180 87.06 -179.08 0 64.91 0 0 6.77 0 0 87.18 0.92 0 66.53 0 0 1.41 0 0 17.09 -4.99 0 23.78 0 0 1.64 0
0 0 0 0.16 -4.04 2.32 38.18 17.5 -38.04 -13.61 -6.38 24.65 0 0 16.9 0 49.65 -6.7 0 45.29 0 0 9.59 0 0 19.09 -7.54 0 11.7 0 0 2 0 0 -5.84 3.37 0 4.86 0 0 4.77 0 0 0.9 6 0 12.46 0 0 4.5 0
0 0 0 1.6 15.14 -5.91 16.01 6.97 -35.57 -14.79 -2.51 9.4 0 0 20.98 0 24 -13.12 0 40.58 0 0 8.37 0 0 10.08 0.33 0 13.46 0 0 3.53 0 0 37.25 4.32 0 44.85 0 0 2.58 0 0 41.78 4.29 0 45.18 0 0 3.12 0
0 0 0 -0.16 -4.57 -1.98 13.17 9.64 -18.33 -13.78 -5.99 23.04 0 0 15.13 0 41.46 -7.38 0 39.68 0 0 8.51 0 0 29.58 -5.87 0 16.19 0 0 3.02 0 0 14.04 -1.08 0 11.33 0 0 4.09 0 0 23.22 1.9 0 19.5 0 0 0 0
0 0 0 0.04 -0.97 2.13 -19.11 -9.62 -31.71 -14.72 -2.92 10.96 0 0 3.02 0 -23.37 -3.25 0 2.9 0 0 5.55 0 0 -10.98 0.82 0 4.24 0 0 3.83 0 0 -10.87 2.81 0 7.71 0 0 2.48 0 0 9.83 1.64 0 14.05 0 0 0 0
0 0 0 0.74 9.18 -4.59 12.52 5.14 -38.33 -14.7 -3.04 11.43 0 0 34.72 0 37.25 -12.34 0 84.64 0 0 13.34 0 0 0.32 3.68 0 7.22 0 0 8.05 0 0 71.87 -0.54 0 72.5 0 0 1.29 0 0 79.44 -0.54 0 75.23 0 0 7.73 0
0 0 0 0.41 6.51 -3.61 73.88 27.16 -58.07 -11.26 -9.98 41.04 0 0 23.38 0 -32.77 -24.06 0 6.51 0 0 12.06 0 0 -19.16 4.27 0 5.91 0 0 9.22 0 0 53.45 2.01 0 81.48 0 0 2.01 0 0 78.36 1.3 0 79.31 0 0 0 0
0 0 0 0.05 2.18 -1.33 -4.58 -3.17 -20.56 -14.19 -4.9 18.66 0 0 12.36 0 18.05 -10.02 0 21.31 0 0 4.41 0 0 17.66 1.6 0 11.74 0 0 2.56 0 0 15.83 2.44 0 12.57 0 0 1.76 0 0 20.9 2.83 0 16.33 0 0 0 0
0 0 0 0.23 5.07 -2.56 22.29 11 -34.36 -14.44 -4.1 15.53 0 0 17.67 0 40.37 -11.87 0 78.31 0 0 9.53 0 0 15.3 9.25 0 29.6 0 0 5.3 0 0 75.51 -1.51 0 71.5 0 0 1.41 0 0 80.55 -1.51 0 77.37 0 0 10.68 0
0 0 0 0.2 3.39 -3.3 -17.41 15.81 -87.74 -15 0 0 0 0 -1.71 0 87.24 2.21 0 63.02 0 0 9.13 0 180 77.16 -177.79 0 65.9 0 0 6.19 0 180 89.94 -177.79 0 66.18 0 0 2.58 0 0 2.34 -7.12 0 20.81 0 0 9.48 0
0 0 0 0.09 1.87 -2.67 -7.4 -4.14 -30.59 -14.97 -1.03 3.83 0 0 11.95 0 10.31 -1.84 0 9.1 0 0 2.16 0 0 48.27 -1.49 0 35.72 0 0 8.59 0 0 51.04 -1.86 0 35.31 0 0 4.86 0 0 60.74 0.7 0 38.39 0 0 3.66 0
0 0 0 1.06 16.66 -3.54 6.56 2.22 -36.93 -15 0 0 0 0 14.84 0 19.53 -14.19 0 26.32 0 0 4.75 0 0 21.49 -0.5 0 17.71 0 0 2.64 0 0 23.73 2.58 0 26.75 0 0 1.6 0 0 23.53 5.78 0 26.64 0 0 0 0
0 0 0 -0.18 -9.22 -1.12 19.99 15.02 -16.76 -13.74 -6.07 23.4 0 0 18.29 0 50 -7.48 0 42.66 0 0 9.5 0 0 29.78 -7.23 0 14.53 0 0 3.27 0 0 9.59 -0.4 0 9.36 0 0 5.44 0 0 16.5 4.56 0 19.53 0 0 2.11 0
0 0 0 0.24 2.04 -6.62 79.36 29.96 -61.26 -8.39 -12.48 55.66 0 0 28.33 0 -15.27 -30.46 0 3.55 0 0 8.02 0 0 -23.46 4.84 0 4.9 0 0 8.05 0 0 -8.32 11.62 0 13.51 0 0 7.21 0 0 66.81 4.07 0 73.4 0 0 7.95 0
0 0 0 0.04 26.32 -0.09 -4.99 -2.34 -63.72 -15 0 0 0 0 3.57 0 67.57 -0.37 0 55.35 0 0 11.83 0 0 86.89 -0.37 0 57.88 0 0 5.71 0 0 80.12 -0.37 0 61.44 0 0 1.99 0 0 5.4 1.31 0 16.33 0 0 5.19 0
0 0 0 -0.73 -10.32 -3.99 -32.71 11.8 -70.94 -15 0 0 0 0 11.91 0 2.46 6.4 0 7.29 0 0 8.94 0 0 76.3 -3.68 0 80.83 0 0 17.27 0 180 87.96 178.02 0 70.65 0 0 13.86 0 180 81.06 178.02 0 71.75 0 0 15.4 0
0 0 0 0.77 21.36 -1.97 -3.67 -0.77 -76.59 -15 0 0 0 0 4.09 0 73.83 1.05 0 72.25 0 0 14.69 0 180 84.9 -178.95 0 66.46 0 0 4.95 0 0 88.56 1.05 0 67.39 0 0 1.74 0 0 3.1 -3.47 0 22.35 0 0 6.01 0
0 0 0 0.18 -5.53 1.81 32.51 16.24 -34.68 -13.77 -6 23.11 0 0 17.78 0 50.5 -6.82 0 45.36 0 0 9.46 0 0 19.31 -7.97 0 11.51 0 0 2.26 0 0 -4.96 2.86 0 4.99 0 0 4.69 0 0 0.12 5.97 0 12.16 0 0 4.98 0
0 0 0 0.32 3.69 -4.97 58.25 32.62 -39.78 -12.21 -8.78 35.18 0 0 20.12 0 -24.42 -23.88 0 5.56 0 0 8.79 0 0 -10.9 4.24 0 13.65 0 0 6.42 0 0 42.4 2.86 0 58.54 0 0 3.13 0 0 64.98 2.77 0 70.91 0 0 12 0
0 0 0 0.59 7.61 -4.41 65.69 32.53 -46.24 -11.22 -10.02 41.25 0 0 22.93 0 -26.5 -23.05 0 6.82 0 0 10.61 0 0 -18.83 4.96 0 4.83 0 0 9.11 0 0 52.5 3.55 0 80.66 0 0 2.4 0 0 77.26 2.19 0 80.93 0 0 0 0
0 0 0 0.42 7.54 -3.14 -17.15 -1.82 -63.32 -15 0 0 0 0 3.26 0 55.7 -1.88 0 54.44 0 0 12.15 0 0 68.99 0.24 0 51.27 0 0 7.81 0 0 54.69 0.5 0 45.36 0 0 3.05 0 0 14.58 1.1 0 18.01 0 0 1.87 0
0 0 0 0.04 0.8 -2.96 -9.15 -4.69 -33.86 -14.98 -0.71 2.67 0 0 11.94 0 11.06 -1.16 0 9.31 0 0 2.35 0 0 52.64 -1.35 0 38.24 0 0 9.33 0 0 56.72 -1.74 0 37.35 0 0 5.14 0 0 65.43 0.27 0 39.27 0 0 4.07 0
0 0 0 0 0.1 -1.89 -21.87 -3.7 -55.69 -15 0 0 0 0 6.63 0 1.09 -3.97 0 15.63 0 0 2.69 0 0 9.25 2.53 0 10.69 0 0 2.46 0 0 9.22 2.2 0 15.15 0 0 1.41 0 0 23.08 0.25 0 17.16 0 0 0 0
0 0 0 -0.13 5.78 1.33 13.22 5.58 -35.83 -14.86 -2.08 7.8 0 0 12.37 0 25.71 -11.57 0 24.98 0 0 3.38 0 0 35.27 -1.97 0 32.99 0 0 4.85 0 0 29.44 -1.45 0 29.66 0 0 0.86 0 0 5.85 9.61 0 25.01 0 0 2.99 0
0 0 0 -0.34 -9.94 -1.96 -26.34 -5.69 -48.45 -14.92 -1.53 5.71 0 0 11.43 0 15.11 12.1 0 6.42 0 0 5.81 0 0 78.99 -2.3 0 80.02 0 0 12.4 0 180 88.93 177.59 0 66.48 0 0 9.17 0 180 89.1 177.59 0 65.15 0 0 14.91 0
0 0 0 0.06 1.76 -1.8 54.42 25.23 -43.36 -13.62 -6.34 24.49 0 0 16.42 0 -40.08 -14.37 0 6.11 0 0 9.67 0 0 -14.15 4.76 0 21.6 0 0 6.72 0 0 42.84 -1 0 59.43 0 0 3.87 0 0 65.67 -0.49 0 65.38 0 0 14.26 0
0 0 0 -0.04 -2.27 -0.93 -21.59 -4.34 -52.65 -15 0 0 0 0 8.99 0 36.3 -5.04 0 24.08 0 0 2.88 0 0 63.42 -1.04 0 57.88 0 0 11.49 0 0 62.1 -1.27 0 55.07 0 0 3.17 0 0 9.6 3.24 0 17.08 0 0 3.68 0
0 0 0 0.17 2.94 -3.38 -19.77 3.8 -73.99 -15 0 0 0 0 3.83 0 -5.84 -0.87 0 13.41 0 0 3.82 0 0 4.54 0.03 0 9.19 0 0 3.02 0 0 3.13 1.09 0 11.86 0 0 1.86 0 0 15.24 -0.57 0 14.16 0 0 0 0
0 0 0 0.7 18.54 -2.09 35.29 19.91 -29.89 -14.65 -3.28 12.33 0 0 15.94 0 -13.45 -15.64 0 18.06 0 0 5.18 0 0 -4.81 6.34 0 26.65 0 0 4.39 0 0 25.91 8.58 0 54.13 0 0 6.21 0 0 41.72 3.87 0 66.9 0 0 23.16 0
